<svg xmlns="http://www.w3.org/2000/svg" width="1400" height="1400" viewBox="0 0 1400 1400" role="img" aria-labelledby="title desc">
  <title id="title">CyberNova Logo</title>
  <desc id="desc">Transparent SVG logo for CyberNova featuring a futuristic CN monogram, orbit path, nova starburst, circuitry accents, and wordmark.</desc>
  <defs>
    <linearGradient id="blueCyan" x1="0%" y1="0%" x2="100%" y2="100%">
      <stop offset="0%" stop-color="#00F0FF"/>
      <stop offset="48%" stop-color="#0A7CFF"/>
      <stop offset="100%" stop-color="#6246FF"/>
    </linearGradient>
    <linearGradient id="cyanViolet" x1="0%" y1="0%" x2="100%" y2="100%">
      <stop offset="0%" stop-color="#20F7FF"/>
      <stop offset="55%" stop-color="#168CFF"/>
      <stop offset="100%" stop-color="#7A35FF"/>
    </linearGradient>
    <linearGradient id="wordGrad" x1="0%" y1="0%" x2="100%" y2="0%">
      <stop offset="0%" stop-color="#19F1FF"/>
      <stop offset="45%" stop-color="#009BFF"/>
      <stop offset="100%" stop-color="#6A4DFF"/>
    </linearGradient>
    <filter id="glow" x="-80%" y="-80%" width="260%" height="260%">
      <feGaussianBlur stdDeviation="8" result="blur"/>
      <feColorMatrix in="blur" type="matrix" values="0 0 0 0 0.04  0 0 0 0 0.65  0 0 0 0 1  0 0 0 0.85 0" result="coloredBlur"/>
      <feMerge>
        <feMergeNode in="coloredBlur"/>
        <feMergeNode in="SourceGraphic"/>
      </feMerge>
    </filter>
    <filter id="softGlow" x="-100%" y="-100%" width="300%" height="300%">
      <feGaussianBlur stdDeviation="4" result="blur"/>
      <feMerge>
        <feMergeNode in="blur"/>
        <feMergeNode in="SourceGraphic"/>
      </feMerge>
    </filter>
    <filter id="starGlow" x="-150%" y="-150%" width="400%" height="400%">
      <feGaussianBlur stdDeviation="7" result="blur"/>
      <feColorMatrix in="blur" type="matrix" values="0 0 0 0 0  0 0 0 0 0.85  0 0 0 0 1  0 0 0 1 0"/>
      <feMerge>
        <feMergeNode/>
        <feMergeNode in="SourceGraphic"/>
      </feMerge>
    </filter>
    <style>
      .mono-stroke { fill: none; stroke-linecap: round; stroke-linejoin: round; }
      .circuit { fill: none; stroke: #00E9FF; stroke-width: 6; stroke-linecap: round; stroke-linejoin: round; }
      .node { fill: #071B3D; stroke: #00E9FF; stroke-width: 6; }
      .wordmark {
        font-family: 'Orbitron', 'Bank Gothic', 'Eurostile Extended', 'Arial Black', Arial, sans-serif;
        font-weight: 900;
        letter-spacing: 22px;
        fill: url(#wordGrad);
      }
    </style>
  </defs>

  <!-- Transparent background intentionally left empty -->

  <!-- Orbital energy paths -->
  <g filter="url(#softGlow)" opacity="0.96">
    <ellipse cx="700" cy="560" rx="420" ry="178" transform="rotate(-18 700 560)" fill="none" stroke="#2B8CFF" stroke-width="4" opacity="0.65"/>
    <ellipse cx="700" cy="560" rx="430" ry="180" transform="rotate(-18 700 560)" fill="none" stroke="#8B4DFF" stroke-width="3" stroke-dasharray="610 190" stroke-linecap="round" opacity="0.95"/>
    <circle cx="1028" cy="415" r="12" fill="#18F7FF"/>
    <circle cx="420" cy="810" r="11" fill="#8F5BFF"/>
  </g>

  <!-- Stylized C monogram -->
  <g filter="url(#glow)">
    <path d="M787 270 L690 372 L575 372 C450 372 352 470 352 596 C352 722 450 820 575 820 L718 820 L787 910 L565 910 C371 910 220 760 220 596 C220 432 371 282 565 282 L787 282 Z"
          fill="url(#blueCyan)" opacity="0.98"/>
    <path d="M714 360 L662 416 L581 416 C480 416 405 493 405 596 C405 699 480 776 581 776 L660 776 L714 836 L568 836 C407 836 285 713 285 596 C285 479 407 356 568 356 L714 356 Z"
          fill="#071B3D" opacity="0.88"/>
    <path d="M787 270 L690 372 L575 372 C450 372 352 470 352 596 C352 722 450 820 575 820 L718 820 L787 910 L565 910 C371 910 220 760 220 596 C220 432 371 282 565 282 L787 282 Z"
          fill="none" stroke="#2AF7FF" stroke-width="5" opacity="0.8"/>
  </g>

  <!-- Stylized N monogram -->
  <g filter="url(#glow)">
    <path d="M620 410 L700 410 L895 662 L895 410 L980 410 L980 845 L898 845 L704 594 L704 845 L620 845 Z"
          fill="url(#cyanViolet)" opacity="0.98"/>
    <path d="M640 438 L690 438 L870 671 L870 438 L950 438 L950 800 L907 800 L724 564 L724 800 L640 800 Z"
          fill="none" stroke="#5DFDFF" stroke-width="5" opacity="0.62"/>
  </g>

  <!-- Circuit traces on C left side -->
  <g filter="url(#softGlow)">
    <path class="circuit" d="M345 505 L290 505 L260 475 L225 475"/>
    <path class="circuit" d="M365 553 L285 553 L250 553 L217 553"/>
    <path class="circuit" d="M352 606 L303 606 L278 635 L238 635"/>
    <path class="circuit" d="M397 500 L397 448"/>
    <path class="circuit" d="M415 570 L380 570 L360 590"/>
    <path class="circuit" d="M415 644 L370 644 L350 690 L313 690"/>
    <circle class="node" cx="225" cy="475" r="10"/>
    <circle class="node" cx="217" cy="553" r="10"/>
    <circle class="node" cx="238" cy="635" r="10"/>
    <circle class="node" cx="397" cy="448" r="10"/>
    <circle class="node" cx="360" cy="590" r="10"/>
    <circle class="node" cx="313" cy="690" r="10"/>
    <circle class="node" cx="290" cy="505" r="8"/>
  </g>

  <!-- Nova starburst -->
  <g filter="url(#starGlow)">
    <line x1="510" y1="596" x2="700" y2="596" stroke="#FFFFFF" stroke-width="8" stroke-linecap="round"/>
    <line x1="605" y1="500" x2="605" y2="690" stroke="#FFFFFF" stroke-width="8" stroke-linecap="round"/>
    <line x1="540" y1="530" x2="670" y2="660" stroke="#00E9FF" stroke-width="4" stroke-linecap="round"/>
    <line x1="670" y1="530" x2="540" y2="660" stroke="#00E9FF" stroke-width="4" stroke-linecap="round"/>
    <circle cx="605" cy="596" r="18" fill="#FFFFFF"/>
    <circle cx="605" cy="596" r="42" fill="#00E9FF" opacity="0.16"/>
  </g>

  <!-- Subtle particles around orbit -->
  <g opacity="0.55">
    <circle cx="965" cy="365" r="3" fill="#00E9FF"/>
    <circle cx="998" cy="350" r="2" fill="#6A4DFF"/>
    <circle cx="1044" cy="500" r="2.4" fill="#00E9FF"/>
    <circle cx="350" cy="780" r="2.2" fill="#6A4DFF"/>
    <circle cx="310" cy="744" r="1.8" fill="#00E9FF"/>
    <circle cx="1080" cy="610" r="2" fill="#6A4DFF"/>
  </g>

  <!-- Wordmark -->
  <g filter="url(#glow)">
    <text x="700" y="1110" text-anchor="middle" class="wordmark" font-size="108">CYBERNOVA</text>
    <text x="700" y="1110" text-anchor="middle" font-family="Orbitron, Arial Black, Arial, sans-serif" font-size="108" font-weight="900" letter-spacing="22" fill="none" stroke="#60FAFF" stroke-width="2" opacity="0.48">CYBERNOVA</text>
  </g>
</svg>
